Coordinates
version=1
nRows=7
nColumns=40
inDegrees=yes

Units are S.I. units (second, meters, Newtons, ...)
Angles are in degrees.

endheader
time	pelvis_tilt	pelvis_list	pelvis_rotation	pelvis_tx	pelvis_ty	pelvis_tz	hip_flexion_r	hip_adduction_r	hip_rotation_r	knee_angle_r	knee_angle_r_beta	ankle_angle_r	subtalar_angle_r	mtp_angle_r	hip_flexion_l	hip_adduction_l	hip_rotation_l	knee_angle_l	knee_angle_l_beta	ankle_angle_l	subtalar_angle_l	mtp_angle_l	lumbar_extension	lumbar_bending	lumbar_rotation	arm_flex_r	arm_add_r	arm_rot_r	elbow_flex_r	pro_sup_r	wrist_flex_r	wrist_dev_r	arm_flex_l	arm_add_l	arm_rot_l	elbow_flex_l	pro_sup_l	wrist_flex_l	wrist_dev_l
      0.44000000	     -9.31355815	     -5.33942952	      3.56462993	     -0.13328836	      0.88839623	      0.23141289	     46.63530713	      2.49284638	    -15.14291790	    -22.49149789	     -0.39255069	    -22.11355180	    -12.07040456	     21.96162913	    -16.41916574	      4.97588833	      5.18960496	    -22.95550312	     -0.40064911	    -32.44731526	      6.71801337	     13.63820770	      1.47322269	      6.94967347	    -10.16069843	    -47.39360107	    -14.94767255	    -11.40241091	     97.95169022	     89.95437384	      0.00000000	      0.00000000	     16.54602325	     18.88082297	    -34.61279582	    130.08084580	     89.95437384	      0.00000000	      0.00000000
      0.45000000	     -9.62960903	     -4.83370427	      3.02924311	     -0.09914608	      0.88671528	      0.23156455	     46.64408336	      2.04985585	    -16.88859185	    -21.99800939	     -0.38393769	    -22.43163478	    -11.32792930	     21.17992148	    -15.52344991	      3.84157977	      3.50363486	    -26.53425428	     -0.46311010	    -30.31389061	     11.73918393	     14.29417538	      2.09964408	      6.71379551	     -9.21728096	    -47.41309814	    -15.38520640	    -11.21902058	     98.11416706	     89.95437384	      0.00000000	      0.00000000	     16.18777472	     18.99119486	    -35.57029130	    130.39650107	     89.95437384	      0.00000000	      0.00000000
      0.46000000	     -9.62404367	     -4.51567431	      2.43112802	     -0.06516112	      0.88452469	      0.23225995	     46.34306054	      1.88640591	    -18.35405446	    -22.53840918	     -0.39336945	    -22.36447777	     -9.96524794	     20.13698515	    -14.51745185	      3.17500240	      2.95672250	    -30.77898638	     -0.53719465	    -28.60886646	     13.91619640	     14.97031179	      2.33211340	      6.62493301	     -8.10051972	    -46.96598968	    -16.10743592	    -10.62388474	     97.98433153	     89.95437384	      0.00000000	      0.00000000	     15.70693812	     19.09828675	    -36.36249568	    129.70353288	     89.95437384	      0.00000000	      0.00000000
      0.47000000	     -9.47589758	     -4.31068889	      1.74402357	     -0.03104359	      0.88190673	      0.23350206	     45.77143198	      2.10483609	    -18.86505184	    -23.74169158	     -0.41437069	    -22.29437060	     -9.27264674	     19.46335291	    -13.39379159	      2.71289753	      2.70045278	    -35.28927086	     -0.61591397	    -27.31801696	     14.82706323	     14.99701315	      2.34960936	      6.70964777	     -7.30023775	    -45.84816583	    -17.20937571	     -9.64005562	     97.58151623	     89.95437384	      0.00000000	      0.00000000	     14.32798094	     19.25866295	    -36.27316623	    128.51796930	     89.95437384	      0.00000000	      0.00000000
      0.48000000	     -9.20083113	     -4.00541025	      1.02865184	      0.00282382	      0.87888043	      0.23431050	     45.06047364	      2.33370835	    -18.47514825	    -25.70468044	     -0.44863131	    -22.07194495	     -9.15860275	     18.80332280	    -12.10140452	      2.12220871	      2.50371394	    -40.01428091	     -0.69838095	    -26.08843647	     14.77757943	     14.76534679	      2.15582327	      6.69094077	     -6.61482709	    -44.11119489	    -18.68501684	     -8.26458775	     96.72052334	     89.95437384	      0.00000000	      0.00000000	     12.50397311	     19.32053105	    -35.89870060	    126.59134249	     89.95437384	      0.00000000	      0.00000000
      0.49000000	     -8.47183937	     -3.88321905	      0.22619755	      0.03624042	      0.87554931	      0.23457991	     43.82574081	      2.85754008	    -17.32423564	    -28.18071727	     -0.49184630	    -21.66879383	     -9.32482474	     18.29679045	    -11.03573909	      1.74312265	      2.61354865	    -44.86831818	     -0.78309988	    -25.28155164	     13.85846481	     14.16696950	      1.40626005	      6.89487653	     -5.30247249	    -42.33212346	    -19.99435938	     -7.13444602	     95.75331794	     89.95437384	      0.00000000	      0.00000000	     11.10135490	     18.96863293	    -35.80309471	    123.68347994	     89.95437384	      0.00000000	      0.00000000
      0.50000000	     -7.87706684	     -3.90718252	     -0.58108689	      0.06937229	      0.87151826	      0.23530849	     42.51636207	      3.87313535	    -15.02035862	    -30.68853451	     -0.53561597	    -17.93307466	     -8.59672140	     17.32959207	     -9.55464943	      1.79320969	      3.14797699	    -49.88020629	     -0.87057383	    -24.66675246	     12.16272853	     13.17298710	      0.69868441	      7.24827058	     -4.40197523	    -39.94044551	    -21.54256599	     -5.54448837	     94.45312081	     89.95437384	      0.00000000	      0.00000000	      9.06499288	     18.68641059	    -34.94137852	    120.58227544	     89.95437384	      0.00000000	      0.00000000
